<mxfile host="65bd71144e" modified="2021-01-09T03:20:37.527Z" agent="5.0 (Windows NT 10.0; Win64; x64) AppleWebKit/537.36 (KHTML, like Gecko) Code/1.52.1 Chrome/83.0.4103.122 Electron/9.3.5 Safari/537.36" etag="Zra6V8_bzFHHV6ZmleA-" version="13.10.0" type="embed" pages="2">
    <diagram id="b0pU2yePJldWLjeDOFWu" name="draft">
        <mxGraphModel dx="1179" dy="1666" grid="1" gridSize="10" guides="1" tooltips="1" connect="1" arrows="1" fold="1" page="1" pageScale="1" pageWidth="850" pageHeight="1100" math="0" shadow="0">
            <root>
                <mxCell id="0"/>
                <mxCell id="1" parent="0"/>
                <mxCell id="RbajNYEE-gRLYwRQwBK6-2" value="" style="whiteSpace=wrap;html=1;" vertex="1" parent="1">
                    <mxGeometry y="580" width="850" height="520" as="geometry"/>
                </mxCell>
                <mxCell id="RbajNYEE-gRLYwRQwBK6-11" value="" style="whiteSpace=wrap;html=1;fillColor=#e3c800;strokeColor=#B09500;fontColor=#ffffff;" vertex="1" parent="1">
                    <mxGeometry x="290" y="610" width="550" height="480" as="geometry"/>
                </mxCell>
                <mxCell id="2" value="" style="rounded=0;whiteSpace=wrap;html=1;" parent="1" vertex="1">
                    <mxGeometry y="-80" width="850" height="530" as="geometry"/>
                </mxCell>
                <mxCell id="tUlJPLNwPt4h-TzIGSOQ-12" value="Auth" style="text;html=1;resizable=0;autosize=1;align=center;verticalAlign=middle;points=[];fillColor=none;strokeColor=none;rounded=0;" parent="1" vertex="1">
                    <mxGeometry x="810" y="-100" width="40" height="20" as="geometry"/>
                </mxCell>
                <mxCell id="LH3LR33_upKFGF5ycK3t-5" value="" style="whiteSpace=wrap;html=1;strokeColor=#666666;fillColor=#424242;" parent="1" vertex="1">
                    <mxGeometry x="20" y="-10" width="810" height="440" as="geometry"/>
                </mxCell>
                <mxCell id="LH3LR33_upKFGF5ycK3t-15" value="" style="whiteSpace=wrap;html=1;fillColor=#008a00;strokeColor=#005700;fontColor=#ffffff;" parent="1" vertex="1">
                    <mxGeometry x="30" y="40" width="790" height="380" as="geometry"/>
                </mxCell>
                <mxCell id="LH3LR33_upKFGF5ycK3t-8" value="BlogCard&lt;br&gt;&lt;br&gt;(Blog title, short description [optional], timestamp)" style="whiteSpace=wrap;html=1;gradientColor=none;fillColor=#5E5E5E;" parent="1" vertex="1">
                    <mxGeometry x="40" y="50" width="760" height="60" as="geometry"/>
                </mxCell>
                <mxCell id="LH3LR33_upKFGF5ycK3t-9" value="BlogCard&lt;br&gt;&lt;br&gt;(Blog title, short description [optional], timestamp)" style="whiteSpace=wrap;html=1;gradientColor=none;fillColor=#5E5E5E;" parent="1" vertex="1">
                    <mxGeometry x="40" y="120" width="760" height="60" as="geometry"/>
                </mxCell>
                <mxCell id="LH3LR33_upKFGF5ycK3t-10" value="BlogCard&lt;br&gt;&lt;br&gt;(Blog title, short description [optional], timestamp)" style="whiteSpace=wrap;html=1;gradientColor=none;fillColor=#5E5E5E;" parent="1" vertex="1">
                    <mxGeometry x="40" y="190" width="760" height="60" as="geometry"/>
                </mxCell>
                <mxCell id="tUlJPLNwPt4h-TzIGSOQ-20" value="" style="rounded=0;whiteSpace=wrap;html=1;fillColor=#0050ef;strokeColor=#001DBC;fontColor=#ffffff;" parent="1" vertex="1">
                    <mxGeometry x="20" y="-20" width="810" height="60" as="geometry"/>
                </mxCell>
                <mxCell id="LH3LR33_upKFGF5ycK3t-14" value="Search" style="whiteSpace=wrap;html=1;fillColor=#5E5E5E;gradientColor=none;" parent="1" vertex="1">
                    <mxGeometry x="40" width="760" height="30" as="geometry"/>
                </mxCell>
                <mxCell id="tUlJPLNwPt4h-TzIGSOQ-21" value="Header" style="rounded=0;whiteSpace=wrap;html=1;" parent="1" vertex="1">
                    <mxGeometry y="-80" width="850" height="60" as="geometry"/>
                </mxCell>
                <mxCell id="LH3LR33_upKFGF5ycK3t-13" value="Logo" style="ellipse;whiteSpace=wrap;html=1;fillColor=#5E5E5E;gradientColor=none;" parent="1" vertex="1">
                    <mxGeometry x="10" y="-70" width="40" height="40" as="geometry"/>
                </mxCell>
                <mxCell id="LH3LR33_upKFGF5ycK3t-3" value="UserCard&lt;br&gt;(Username/login &amp;amp; signup)" style="whiteSpace=wrap;html=1;fillColor=#d80073;strokeColor=#A50040;fontColor=#ffffff;" parent="1" vertex="1">
                    <mxGeometry x="730" y="-80" width="120" height="60" as="geometry"/>
                </mxCell>
                <mxCell id="tUlJPLNwPt4h-TzIGSOQ-24" value="" style="whiteSpace=wrap;html=1;" parent="1" vertex="1">
                    <mxGeometry x="30" y="-350" width="790" height="150" as="geometry"/>
                </mxCell>
                <mxCell id="LH3LR33_upKFGF5ycK3t-16" value="&lt;font style=&quot;font-size: 36px&quot;&gt;blog_title&lt;br&gt;&lt;/font&gt;" style="text;html=1;resizable=0;autosize=1;align=center;verticalAlign=middle;points=[];fillColor=none;strokeColor=none;rounded=0;" parent="1" vertex="1">
                    <mxGeometry x="30" y="-330" width="160" height="30" as="geometry"/>
                </mxCell>
                <mxCell id="LH3LR33_upKFGF5ycK3t-17" value="blog_desc" style="text;html=1;resizable=0;autosize=1;align=center;verticalAlign=middle;points=[];fillColor=none;strokeColor=none;rounded=0;fontSize=24;" parent="1" vertex="1">
                    <mxGeometry x="30" y="-280" width="120" height="30" as="geometry"/>
                </mxCell>
                <mxCell id="JBGekaP1Z4V8P4n9MSZa-3" value="&lt;font style=&quot;font-size: 12px&quot;&gt;timestamp&lt;/font&gt;" style="text;html=1;resizable=0;autosize=1;align=center;verticalAlign=middle;points=[];fillColor=none;strokeColor=none;rounded=0;fontSize=24;" parent="1" vertex="1">
                    <mxGeometry x="755" y="-240" width="70" height="40" as="geometry"/>
                </mxCell>
                <mxCell id="RbajNYEE-gRLYwRQwBK6-3" value="Blog&lt;br&gt;&lt;br&gt;(Blog View)" style="text;html=1;resizable=0;autosize=1;align=center;verticalAlign=middle;points=[];fillColor=none;strokeColor=none;rounded=0;" vertex="1" parent="1">
                    <mxGeometry x="380" y="525" width="80" height="50" as="geometry"/>
                </mxCell>
                <mxCell id="RbajNYEE-gRLYwRQwBK6-4" value="BlogCard&lt;br&gt;&lt;br&gt;(Blog card component)" style="text;html=1;resizable=0;autosize=1;align=center;verticalAlign=middle;points=[];fillColor=none;strokeColor=none;rounded=0;" vertex="1" parent="1">
                    <mxGeometry x="360" y="-400" width="140" height="50" as="geometry"/>
                </mxCell>
                <mxCell id="RbajNYEE-gRLYwRQwBK6-5" value="Home&lt;br&gt;&lt;br&gt;(Home view, user is signed in)" style="text;html=1;resizable=0;autosize=1;align=center;verticalAlign=middle;points=[];fillColor=none;strokeColor=none;rounded=0;" vertex="1" parent="1">
                    <mxGeometry x="340" y="-130" width="180" height="50" as="geometry"/>
                </mxCell>
                <mxCell id="RbajNYEE-gRLYwRQwBK6-9" value="" style="whiteSpace=wrap;html=1;fillColor=#0050ef;strokeColor=#001DBC;fontColor=#ffffff;" vertex="1" parent="1">
                    <mxGeometry x="300" y="620" width="120" height="60" as="geometry"/>
                </mxCell>
                <mxCell id="RbajNYEE-gRLYwRQwBK6-8" value="Blog Name" style="text;html=1;resizable=0;autosize=1;align=center;verticalAlign=middle;points=[];fillColor=none;strokeColor=none;rounded=0;" vertex="1" parent="1">
                    <mxGeometry x="300" y="630" width="70" height="20" as="geometry"/>
                </mxCell>
                <mxCell id="RbajNYEE-gRLYwRQwBK6-10" value="Timestamp" style="text;html=1;resizable=0;autosize=1;align=center;verticalAlign=middle;points=[];fillColor=none;strokeColor=none;rounded=0;" vertex="1" parent="1">
                    <mxGeometry x="300" y="660" width="70" height="20" as="geometry"/>
                </mxCell>
                <mxCell id="RbajNYEE-gRLYwRQwBK6-12" value="" style="whiteSpace=wrap;html=1;fillColor=#f0a30a;strokeColor=#BD7000;fontColor=#ffffff;" vertex="1" parent="1">
                    <mxGeometry x="10" y="610" width="270" height="480" as="geometry"/>
                </mxCell>
                <mxCell id="RbajNYEE-gRLYwRQwBK6-13" value="AuthorCard&lt;br&gt;&lt;br&gt;(Shows author's picture, name, likes)&lt;br&gt;&lt;br&gt;CSS: Fixed" style="whiteSpace=wrap;html=1;fillColor=#fa6800;strokeColor=#C73500;fontColor=#ffffff;" vertex="1" parent="1">
                    <mxGeometry x="20" y="620" width="200" height="280" as="geometry"/>
                </mxCell>
                <mxCell id="RbajNYEE-gRLYwRQwBK6-14" value="" style="whiteSpace=wrap;html=1;fillColor=#1ba1e2;strokeColor=#006EAF;fontColor=#ffffff;shadow=1;" vertex="1" parent="1">
                    <mxGeometry x="300" y="690" width="530" height="370" as="geometry"/>
                </mxCell>
                <mxCell id="RbajNYEE-gRLYwRQwBK6-17" value="" style="whiteSpace=wrap;html=1;shadow=1;" vertex="1" parent="1">
                    <mxGeometry y="-1000" width="845" height="550" as="geometry"/>
                </mxCell>
                <mxCell id="RbajNYEE-gRLYwRQwBK6-18" value="Home&lt;br&gt;&lt;br&gt;(Home view, User is not logged in)" style="text;html=1;resizable=0;autosize=1;align=center;verticalAlign=middle;points=[];fillColor=none;strokeColor=none;rounded=0;shadow=1;" vertex="1" parent="1">
                    <mxGeometry x="330" y="-1070" width="200" height="50" as="geometry"/>
                </mxCell>
                <mxCell id="RbajNYEE-gRLYwRQwBK6-19" value="Header" style="whiteSpace=wrap;html=1;shadow=0;" vertex="1" parent="1">
                    <mxGeometry x="5" y="-1000" width="840" height="60" as="geometry"/>
                </mxCell>
                <mxCell id="RbajNYEE-gRLYwRQwBK6-21" value="UserCard&lt;br&gt;&lt;br&gt;(Login/Signup)" style="whiteSpace=wrap;html=1;shadow=0;fillColor=#d80073;strokeColor=#A50040;fontColor=#ffffff;" vertex="1" parent="1">
                    <mxGeometry x="725" y="-1000" width="120" height="60" as="geometry"/>
                </mxCell>
                <mxCell id="RbajNYEE-gRLYwRQwBK6-22" value="Welcome&lt;br&gt;&lt;br&gt;(Has welcome message, prompts user to signup or login)" style="whiteSpace=wrap;html=1;shadow=0;fillColor=#1ba1e2;strokeColor=#006EAF;fontColor=#ffffff;" vertex="1" parent="1">
                    <mxGeometry x="20" y="-910" width="810" height="440" as="geometry"/>
                </mxCell>
                <mxCell id="RbajNYEE-gRLYwRQwBK6-23" value="" style="whiteSpace=wrap;html=1;shadow=0;" vertex="1" parent="1">
                    <mxGeometry x="30" y="320" width="790" height="100" as="geometry"/>
                </mxCell>
                <mxCell id="LH3LR33_upKFGF5ycK3t-7" value="+" style="ellipse;whiteSpace=wrap;html=1;fillColor=#0050ef;strokeColor=#001DBC;fontColor=#ffffff;" parent="1" vertex="1">
                    <mxGeometry x="385" y="330" width="80" height="80" as="geometry"/>
                </mxCell>
                <mxCell id="LH3LR33_upKFGF5ycK3t-11" value="" style="whiteSpace=wrap;html=1;fillColor=#1ba1e2;strokeColor=#006EAF;fontColor=#ffffff;" parent="1" vertex="1">
                    <mxGeometry x="810" y="45" width="10" height="350" as="geometry"/>
                </mxCell>
            </root>
        </mxGraphModel>
    </diagram>
    <diagram id="9nKqq0IiKOANSFXz_4VC" name="logo">
        <mxGraphModel dx="1179" dy="566" grid="1" gridSize="10" guides="1" tooltips="1" connect="1" arrows="1" fold="1" page="1" pageScale="1" pageWidth="850" pageHeight="1100" math="0" shadow="0">
            <root>
                <mxCell id="gikQ0uldCKFE556pZzSd-0"/>
                <mxCell id="gikQ0uldCKFE556pZzSd-1" parent="gikQ0uldCKFE556pZzSd-0"/>
            </root>
        </mxGraphModel>
    </diagram>
</mxfile>